<?xml version="1.0" encoding="UTF-8"?>
<!DOCTYPE svg PUBLIC "-//W3C//DTD SVG 1.1//EN" "http://www.w3.org/Graphics/SVG/1.1/DTD/svg11.dtd">
<svg xmlns="http://www.w3.org/2000/svg" version="1.1" width="955px" height="894px" style="shape-rendering:geometricPrecision; text-rendering:geometricPrecision; image-rendering:optimizeQuality; fill-rule:evenodd; clip-rule:evenodd" xmlns:xlink="http://www.w3.org/1999/xlink">
<g><path style="opacity:1" fill="#04293b" d="M -0.5,-0.5 C 317.833,-0.5 636.167,-0.5 954.5,-0.5C 954.5,297.5 954.5,595.5 954.5,893.5C 636.167,893.5 317.833,893.5 -0.5,893.5C -0.5,595.5 -0.5,297.5 -0.5,-0.5 Z"/></g>
<g><path style="opacity:1" fill="#f3f7f7" d="M 365.5,173.5 C 374.423,172.839 383.09,174.005 391.5,177C 418.328,188.388 445.328,199.388 472.5,210C 492.053,218.935 500.22,234.101 497,255.5C 488.579,278.799 472.079,288.299 447.5,284C 427.042,275.353 406.542,266.853 386,258.5C 385.333,259.5 385.333,260.5 386,261.5C 395.058,282.673 403.724,304.006 412,325.5C 413.433,348.806 402.933,363.639 380.5,370C 365.554,372.976 353.054,368.809 343,357.5C 328.48,322.948 314.147,288.281 300,253.5C 298.769,228.295 310.603,213.628 335.5,209.5C 336.892,197.217 342.559,187.383 352.5,180C 356.925,177.787 361.259,175.621 365.5,173.5 Z"/></g>
<g><path style="opacity:1" fill="#05293b" d="M 366.5,182.5 C 372.176,182.334 377.843,182.501 383.5,183C 397.758,188.806 412.091,194.306 426.5,199.5C 418.557,218.387 410.89,237.387 403.5,256.5C 388.591,251.362 373.924,245.528 359.5,239C 345.302,229.07 341.135,215.903 347,199.5C 351.546,191.445 358.046,185.779 366.5,182.5 Z"/></g>
<g><path style="opacity:1" fill="#06293b" d="M 433.5,203.5 C 446.479,208.654 459.479,213.82 472.5,219C 490.027,229.588 494.194,244.088 485,262.5C 476.209,274.633 464.376,279.133 449.5,276C 436.236,270.699 423.236,265.032 410.5,259C 418.341,240.495 426.008,221.995 433.5,203.5 Z"/></g>
<g><path style="opacity:1" fill="#778a8e" d="M 330.5,218.5 C 332.265,217.539 334.265,217.205 336.5,217.5C 336.5,218.5 336.5,219.5 336.5,220.5C 334.886,218.925 332.886,218.259 330.5,218.5 Z"/></g>
<g><path style="opacity:1" fill="#06293b" d="M 330.5,218.5 C 332.886,218.259 334.886,218.925 336.5,220.5C 338.234,229.797 342.901,237.297 350.5,243C 358.346,247.117 366.346,250.951 374.5,254.5C 377.17,261.172 379.836,267.838 382.5,274.5C 381.811,276.353 380.478,277.519 378.5,278C 360.725,285.304 343.058,292.47 325.5,299.5C 320.297,285.42 314.797,271.42 309,257.5C 304.822,238.191 311.989,225.191 330.5,218.5 Z"/></g>
<g><path style="opacity:1" fill="#06293b" d="M 384.5,283.5 C 385.496,283.414 386.329,283.748 387,284.5C 392.529,297.419 397.862,310.419 403,323.5C 405.011,350.489 392.511,363.322 365.5,362C 358.45,360.056 352.617,356.222 348,350.5C 341.552,336.335 335.386,322.002 329.5,307.5C 347.936,299.783 366.269,291.783 384.5,283.5 Z"/></g>
<g><path style="opacity:1" fill="#16303b" d="M 641.5,298.5 C 577.833,298.5 514.167,298.5 450.5,298.5C 450.217,297.784 449.884,296.951 449.5,296C 450.729,295.219 452.062,294.719 453.5,294.5C 456.865,295.004 460.198,295.671 463.5,296.5C 522.999,297.167 582.332,297.833 641.5,298.5 Z"/></g>
<g><path style="opacity:1" fill="#062936" d="M 642.5,298.5 C 644.878,299.692 646.878,301.359 648.5,303.5C 649.5,383.497 649.833,463.497 649.5,543.5C 648.5,543.5 647.5,543.5 646.5,543.5C 646.667,463.166 646.5,382.833 646,302.5C 644.989,303.337 643.822,303.67 642.5,303.5C 642.5,301.833 642.5,300.167 642.5,298.5 Z"/></g>
<g><path style="opacity:1" fill="#71838c" d="M 450.5,299.5 C 450.5,304.5 450.5,309.5 450.5,314.5C 446.5,314.5 442.5,314.5 438.5,314.5C 441.962,313.518 445.629,313.185 449.5,313.5C 449.181,308.637 449.514,303.97 450.5,299.5 Z"/></g>
<g><path style="opacity:1" fill="#05293b" d="M 617.5,319.5 C 617.5,388.5 617.5,457.5 617.5,526.5C 615.833,526.5 614.167,526.5 612.5,526.5C 612.5,457.833 612.5,389.167 612.5,320.5C 611.5,320.5 610.5,320.5 609.5,320.5C 609.5,389.167 609.5,457.833 609.5,526.5C 601.097,527.134 593.097,526.467 585.5,524.5C 592.312,502.957 584.979,488.79 563.5,482C 543.244,481.276 532.244,490.943 530.5,511C 532.257,531.061 543.257,540.728 563.5,540C 571.899,538.402 578.566,534.236 583.5,527.5C 585.48,539.455 586.146,551.788 585.5,564.5C 548.167,564.5 510.833,564.5 473.5,564.5C 473.5,556.5 473.5,548.5 473.5,540.5C 485.498,527.157 485.498,513.823 473.5,500.5C 472.667,474.173 472.167,447.84 472,421.5C 471.209,420.255 470.709,418.922 470.5,417.5C 465.768,406.444 457.435,399.777 445.5,397.5C 450.964,389.402 456.297,381.235 461.5,373C 460.256,370.618 458.423,368.785 456,367.5C 456.292,364.479 457.625,361.812 460,359.5C 461.771,360.304 463.271,361.471 464.5,363C 465.833,363.667 467.167,363.667 468.5,363C 470.962,358.574 473.796,354.407 477,350.5C 477.667,349.167 477.667,347.833 477,346.5C 465.414,338.957 453.914,331.291 442.5,323.5C 441.571,322.311 441.238,320.978 441.5,319.5C 500.167,319.5 558.833,319.5 617.5,319.5 Z"/></g>
<g><path style="opacity:1" fill="#032a35" d="M 612.5,526.5 C 611.5,526.5 610.5,526.5 609.5,526.5C 609.5,457.833 609.5,389.167 609.5,320.5C 610.5,320.5 611.5,320.5 612.5,320.5C 612.5,389.167 612.5,457.833 612.5,526.5 Z"/></g>
<g><path style="opacity:1" fill="#274149" d="M 617.5,319.5 C 617.833,319.5 618.167,319.5 618.5,319.5C 618.5,388.833 618.5,458.167 618.5,527.5C 607.918,527.18 597.418,527.513 587,528.5C 586.5,540.495 586.333,552.495 586.5,564.5C 586.167,564.5 585.833,564.5 585.5,564.5C 586.146,551.788 585.48,539.455 583.5,527.5C 583.932,526.29 584.599,525.29 585.5,524.5C 593.097,526.467 601.097,527.134 609.5,526.5C 610.5,526.5 611.5,526.5 612.5,526.5C 614.167,526.5 615.833,526.5 617.5,526.5C 617.5,457.5 617.5,388.5 617.5,319.5 Z"/></g>
<g><path style="opacity:1" fill="#d8dfe2" d="M 480.5,354.5 C 514.835,354.333 549.168,354.5 583.5,355C 584.833,356.667 584.833,358.333 583.5,360C 549.5,360.667 515.5,360.667 481.5,360C 479.17,358.512 478.836,356.679 480.5,354.5 Z"/></g>
<g><path style="opacity:1" fill="#e5ebeb" d="M 584.5,379.5 C 584.5,380.5 584.5,381.5 584.5,382.5C 549.833,382.5 515.167,382.5 480.5,382.5C 479.119,380.726 479.452,379.226 481.5,378C 515.5,377.333 549.5,377.333 583.5,378C 584.056,378.383 584.389,378.883 584.5,379.5 Z"/></g>
<g><path style="opacity:1" fill="#3f515c" d="M 584.5,379.5 C 585.434,380.568 585.768,381.901 585.5,383.5C 550.329,383.832 515.329,383.498 480.5,382.5C 515.167,382.5 549.833,382.5 584.5,382.5C 584.5,381.5 584.5,380.5 584.5,379.5 Z"/></g>
<g><path style="opacity:1" fill="#e8eced" d="M 480.5,400.5 C 514.835,400.333 549.168,400.5 583.5,401C 584.38,402.356 584.714,403.856 584.5,405.5C 549.832,405.667 515.165,405.5 480.5,405C 479.587,403.586 479.587,402.086 480.5,400.5 Z"/></g>
<g><path style="opacity:1" fill="#062a3b" d="M 466.5,419.5 C 466.833,422.167 467.167,424.833 467.5,427.5C 467.831,450.339 467.497,473.006 466.5,495.5C 456.178,491.766 446.678,493.1 438,499.5C 437.82,481.427 437.32,463.427 436.5,445.5C 434.31,438.548 429.644,434.048 422.5,432C 428.982,421.703 435.982,411.869 443.5,402.5C 454.331,404.011 461.998,409.678 466.5,419.5 Z"/></g>
<g><path style="opacity:1" fill="#9dafbb" d="M 467.5,427.5 C 468.829,450.337 468.829,473.337 467.5,496.5C 466.893,496.376 466.56,496.043 466.5,495.5C 467.497,473.006 467.831,450.339 467.5,427.5 Z"/></g>
<g><path style="opacity:1" fill="#ebf0f1" d="M 437.5,315.5 C 437.461,317.359 438.294,318.692 440,319.5C 499.598,318.167 559.098,318.167 618.5,319.5C 618.167,319.5 617.833,319.5 617.5,319.5C 558.833,319.5 500.167,319.5 441.5,319.5C 441.238,320.978 441.571,322.311 442.5,323.5C 453.914,331.291 465.414,338.957 477,346.5C 477.667,347.833 477.667,349.167 477,350.5C 473.796,354.407 470.962,358.574 468.5,363C 467.167,363.667 465.833,363.667 464.5,363C 463.271,361.471 461.771,360.304 460,359.5C 457.625,361.812 456.292,364.479 456,367.5C 458.423,368.785 460.256,370.618 461.5,373C 456.297,381.235 450.964,389.402 445.5,397.5C 457.435,399.777 465.768,406.444 470.5,417.5C 469.15,419.02 467.817,419.687 466.5,419.5C 461.998,409.678 454.331,404.011 443.5,402.5C 435.982,411.869 428.982,421.703 422.5,432C 429.644,434.048 434.31,438.548 436.5,445.5C 435.065,443.599 433.398,443.266 431.5,444.5C 428.518,439.675 424.184,437.509 418.5,438C 413.876,444.748 409.376,451.581 405,458.5C 397.96,466.245 390.127,472.912 381.5,478.5C 373.701,473.763 366.035,468.763 358.5,463.5C 358.167,462.5 357.833,461.5 357.5,460.5C 359.828,451.684 362.661,443.017 366,434.5C 384.667,406.5 403.333,378.5 422,350.5C 423.019,349.313 424.186,348.313 425.5,347.5C 431.603,353.247 435.103,351.914 436,343.5C 433.666,342.33 431.832,340.663 430.5,338.5C 432.318,335.538 434.151,332.538 436,329.5C 436.174,324.649 436.674,319.982 437.5,315.5 Z"/></g>
<g><path style="opacity:1" fill="#082b3b" d="M 418.5,364.5 C 428.999,369.99 438.999,376.323 448.5,383.5C 433.23,407.722 417.23,431.389 400.5,454.5C 390.662,448.415 380.996,442.082 371.5,435.5C 387.425,411.976 403.092,388.31 418.5,364.5 Z"/></g>
<g><path style="opacity:1" fill="#edf2f3" d="M 419.5,393.5 C 427.665,392.175 431.498,395.509 431,403.5C 426.224,411.275 421.057,418.775 415.5,426C 406.323,428.492 402.489,424.992 404,415.5C 408.673,407.686 413.84,400.353 419.5,393.5 Z"/></g>
<g><path style="opacity:1" fill="#0f2e3e" d="M 420.5,398.5 C 422.199,398.34 423.866,398.506 425.5,399C 426.517,400.049 426.684,401.216 426,402.5C 422,408.5 418,414.5 414,420.5C 411.426,423.259 409.26,422.926 407.5,419.5C 412.106,412.612 416.439,405.612 420.5,398.5 Z"/></g>
<g><path style="opacity:1" fill="#0d2d3c" d="M 425.5,354.5 C 426.552,354.351 427.552,354.517 428.5,355C 437.363,361.362 446.363,367.529 455.5,373.5C 454.267,378.27 451.6,379.436 447.5,377C 439.028,371.361 430.695,365.528 422.5,359.5C 423.26,357.64 424.26,355.973 425.5,354.5 Z"/></g>
<g><path style="opacity:1" fill="#112f3e" d="M 440.5,347.5 C 445.866,350.021 450.866,353.188 455.5,357C 454.167,359 452.833,361 451.5,363C 450.5,363.667 449.5,363.667 448.5,363C 444.676,359.921 440.676,357.088 436.5,354.5C 438.11,352.275 439.443,349.941 440.5,347.5 Z"/></g>
<g><path style="opacity:1" fill="#0b2c3c" d="M 441.5,329.5 C 451.702,335.189 461.535,341.522 471,348.5C 470.222,351.549 468.722,354.382 466.5,357C 456.213,351.265 446.213,344.765 436.5,337.5C 438.689,335.113 440.356,332.447 441.5,329.5 Z"/></g>
<g><path style="opacity:1" fill="#0d2d3d" d="M 368.5,440.5 C 378.449,446.146 388.116,452.313 397.5,459C 394.963,461.872 392.13,464.372 389,466.5C 381.049,461.113 373.216,455.613 365.5,450C 367.233,447.042 368.233,443.875 368.5,440.5 Z"/></g>
<g><path style="opacity:1" fill="#102e3f" d="M 363.5,455.5 C 369.805,459.656 376.138,463.823 382.5,468C 385.226,471.63 384.226,472.963 379.5,472C 374.167,468.333 368.833,464.667 363.5,461C 362.464,459.224 362.464,457.391 363.5,455.5 Z"/></g>
<g><path style="opacity:1" fill="#06293b" d="M 438.5,535.5 C 437.833,534.5 437.167,533.5 436.5,532.5C 433.045,524.937 432.712,517.27 435.5,509.5C 445.289,496.979 456.955,495.146 470.5,504C 480.606,516.609 479.606,528.276 467.5,539C 456.917,544.544 447.25,543.377 438.5,535.5 Z"/></g>
<g><path style="opacity:1" fill="#617781" d="M 432.5,448.5 C 433.497,466.659 433.83,484.992 433.5,503.5C 404.5,503.5 375.5,503.5 346.5,503.5C 374.995,502.502 403.662,502.169 432.5,502.5C 432.5,484.5 432.5,466.5 432.5,448.5 Z"/></g>
<g><path style="opacity:1" fill="#9db1bb" d="M 347.5,508.5 C 347.5,508.167 347.5,507.833 347.5,507.5C 375.853,506.842 403.853,507.508 431.5,509.5C 431.167,509.5 430.833,509.5 430.5,509.5C 403.005,508.502 375.338,508.169 347.5,508.5 Z"/></g>
<g><path style="opacity:1" fill="#04293b" d="M 347.5,508.5 C 375.338,508.169 403.005,508.502 430.5,509.5C 429.27,511.297 428.604,513.297 428.5,515.5C 427.549,516.919 427.216,518.585 427.5,520.5C 400.167,520.5 372.833,520.5 345.5,520.5C 344.542,520.047 343.708,519.381 343,518.5C 341.317,513.543 342.817,510.21 347.5,508.5 Z"/></g>
<g><path style="opacity:1" fill="#e6f0f5" d="M 344.5,504.5 C 345.263,505.268 346.263,505.768 347.5,506C 344.903,506.779 344.903,507.279 347.5,507.5C 347.5,507.833 347.5,508.167 347.5,508.5C 342.817,510.21 341.317,513.543 343,518.5C 343.708,519.381 344.542,520.047 345.5,520.5C 372.995,521.498 400.662,521.831 428.5,521.5C 428.5,519.5 428.5,517.5 428.5,515.5C 428.604,513.297 429.27,511.297 430.5,509.5C 430.833,509.5 431.167,509.5 431.5,509.5C 432.528,509.926 433.861,509.926 435.5,509.5C 432.712,517.27 433.045,524.937 436.5,532.5C 434.956,532.297 433.622,531.63 432.5,530.5C 431.893,530.624 431.56,530.957 431.5,531.5C 431.167,531.5 430.833,531.5 430.5,531.5C 429.699,529.958 429.366,528.292 429.5,526.5C 401.328,526.831 373.328,526.498 345.5,525.5C 373.835,525.667 402.169,525.5 430.5,525C 430.957,524.586 431.291,524.086 431.5,523.5C 403.839,522.333 376.173,522.167 348.5,523C 348.833,523.333 349.167,523.667 349.5,524C 347.618,524.198 345.952,524.698 344.5,525.5C 338.175,522.056 336.008,516.723 338,509.5C 339.777,507.21 341.944,505.543 344.5,504.5 Z"/></g>
<g><path style="opacity:1" fill="#fefefc" d="M 345.5,525.5 C 345.167,525.5 344.833,525.5 344.5,525.5C 345.952,524.698 347.618,524.198 349.5,524C 349.167,523.667 348.833,523.333 348.5,523C 376.173,522.167 403.839,522.333 431.5,523.5C 431.291,524.086 430.957,524.586 430.5,525C 402.169,525.5 373.835,525.667 345.5,525.5 Z"/></g>
<g><path style="opacity:1" fill="#38515f" d="M 428.5,515.5 C 428.5,517.5 428.5,519.5 428.5,521.5C 400.662,521.831 372.995,521.498 345.5,520.5C 372.833,520.5 400.167,520.5 427.5,520.5C 427.216,518.585 427.549,516.919 428.5,515.5 Z"/></g>
<g><path style="opacity:1" fill="#f2f6f6" d="M 450.5,298.5 C 514.167,298.5 577.833,298.5 641.5,298.5C 641.833,298.5 642.167,298.5 642.5,298.5C 642.5,300.167 642.5,301.833 642.5,303.5C 642.667,385.834 642.5,468.167 642,550.5C 629.909,551.323 617.742,551.823 605.5,552C 600.301,558.029 594.967,563.862 589.5,569.5C 551.165,569.333 512.832,569.5 474.5,570C 475.244,571.039 476.244,571.539 477.5,571.5C 481.099,573.263 483.932,575.93 486,579.5C 486.5,585.825 486.666,592.158 486.5,598.5C 437.167,598.5 387.833,598.5 338.5,598.5C 337.873,590.948 338.706,583.615 341,576.5C 344.007,572.748 347.84,570.748 352.5,570.5C 352.094,562.083 352.594,553.749 354,545.5C 356.406,540.259 360.239,536.592 365.5,534.5C 389.539,535.843 413.706,537.176 438,538.5C 438.483,537.552 438.649,536.552 438.5,535.5C 447.25,543.377 456.917,544.544 467.5,539C 479.606,528.276 480.606,516.609 470.5,504C 456.955,495.146 445.289,496.979 435.5,509.5C 433.861,509.926 432.528,509.926 431.5,509.5C 403.853,507.508 375.853,506.842 347.5,507.5C 344.903,507.279 344.903,506.779 347.5,506C 346.263,505.768 345.263,505.268 344.5,504.5C 344.842,503.662 345.508,503.328 346.5,503.5C 375.5,503.5 404.5,503.5 433.5,503.5C 433.83,484.992 433.497,466.659 432.5,448.5C 432.167,447.167 431.833,445.833 431.5,444.5C 433.398,443.266 435.065,443.599 436.5,445.5C 437.32,463.427 437.82,481.427 438,499.5C 446.678,493.1 456.178,491.766 466.5,495.5C 466.56,496.043 466.893,496.376 467.5,496.5C 468.829,473.337 468.829,450.337 467.5,427.5C 467.167,424.833 466.833,422.167 466.5,419.5C 467.817,419.687 469.15,419.02 470.5,417.5C 470.709,418.922 471.209,420.255 472,421.5C 472.167,447.84 472.667,474.173 473.5,500.5C 485.498,513.823 485.498,527.157 473.5,540.5C 472.507,548.65 472.174,556.983 472.5,565.5C 510.67,565.832 548.67,565.499 586.5,564.5C 586.333,552.495 586.5,540.495 587,528.5C 597.418,527.513 607.918,527.18 618.5,527.5C 618.5,458.167 618.5,388.833 618.5,319.5C 559.098,318.167 499.598,318.167 440,319.5C 438.294,318.692 437.461,317.359 437.5,315.5C 437.5,314.833 437.833,314.5 438.5,314.5C 442.5,314.5 446.5,314.5 450.5,314.5C 450.5,309.5 450.5,304.5 450.5,299.5C 450.5,299.167 450.5,298.833 450.5,298.5 Z"/></g>
<g><path style="opacity:1" fill="#ecf1f3" d="M 585.5,524.5 C 584.599,525.29 583.932,526.29 583.5,527.5C 578.566,534.236 571.899,538.402 563.5,540C 543.257,540.728 532.257,531.061 530.5,511C 532.244,490.943 543.244,481.276 563.5,482C 584.979,488.79 592.312,502.957 585.5,524.5 Z"/></g>
<g><path style="opacity:1" fill="#52646d" d="M 546.5,531.5 C 548.402,528.663 549.069,525.329 548.5,521.5C 544.671,520.931 541.337,521.598 538.5,523.5C 537.596,522.791 537.263,521.791 537.5,520.5C 541.5,520.5 545.5,520.5 549.5,520.5C 549.5,524.5 549.5,528.5 549.5,532.5C 548.209,532.737 547.209,532.404 546.5,531.5 Z"/></g>
<g><path style="opacity:1" fill="#0e2c3d" d="M 568.5,521.5 C 580.787,519.478 582.787,522.312 574.5,530C 572.783,531.559 570.783,532.392 568.5,532.5C 568.5,528.833 568.5,525.167 568.5,521.5 Z"/></g>
<g><path style="opacity:1" fill="#0a2b3b" d="M 546.5,531.5 C 542.833,529.833 540.167,527.167 538.5,523.5C 541.337,521.598 544.671,520.931 548.5,521.5C 549.069,525.329 548.402,528.663 546.5,531.5 Z"/></g>
<g><path style="opacity:1" fill="#0c2d3d" d="M 583.5,514.5 C 577.399,515.128 571.399,515.795 565.5,516.5C 564.883,516.611 564.383,516.944 564,517.5C 563.501,523.491 563.334,529.491 563.5,535.5C 560.5,535.5 557.5,535.5 554.5,535.5C 554.666,529.158 554.5,522.825 554,516.5C 547.924,515.524 541.758,515.19 535.5,515.5C 535.5,512.167 535.5,508.833 535.5,505.5C 541.833,505.5 548.167,505.5 554.5,505.5C 554.5,499.167 554.5,492.833 554.5,486.5C 557.777,486.216 560.943,486.549 564,487.5C 564.188,493.748 564.688,499.915 565.5,506C 571.491,506.499 577.491,506.666 583.5,506.5C 583.5,509.167 583.5,511.833 583.5,514.5 Z"/></g>
<g><path style="opacity:1" fill="#5b7073" d="M 583.5,514.5 C 577.926,516.453 571.926,517.12 565.5,516.5C 571.399,515.795 577.399,515.128 583.5,514.5 Z"/></g>
<g><path style="opacity:1" fill="#133140" d="M 547.5,489.5 C 549.423,493.029 550.089,497.029 549.5,501.5C 545.445,501.824 541.445,501.491 537.5,500.5C 539.506,495.525 542.839,491.859 547.5,489.5 Z"/></g>
<g><path style="opacity:1" fill="#0a2a39" d="M 569.5,489.5 C 574.949,491.782 578.949,495.615 581.5,501C 577.514,501.499 573.514,501.666 569.5,501.5C 569.5,497.5 569.5,493.5 569.5,489.5 Z"/></g>
<g><path style="opacity:1" fill="#012b33" d="M 479.5,459.5 C 511.459,459.254 543.459,459.588 575.5,460.5C 543.326,461.301 511.326,461.967 479.5,462.5C 479.5,461.5 479.5,460.5 479.5,459.5 Z"/></g>
<g><path style="opacity:1" fill="#e9eff0" d="M 480.5,446.5 C 514.835,446.333 549.168,446.5 583.5,447C 584.38,448.356 584.714,449.856 584.5,451.5C 549.833,451.5 515.167,451.5 480.5,451.5C 480.5,449.833 480.5,448.167 480.5,446.5 Z"/></g>
<g><path style="opacity:1" fill="#50636a" d="M 480.5,424.5 C 480.5,425.833 480.5,427.167 480.5,428.5C 514.833,428.5 549.167,428.5 583.5,428.5C 549.004,429.498 514.337,429.832 479.5,429.5C 479.216,427.585 479.549,425.919 480.5,424.5 Z"/></g>
<g><path style="opacity:1" fill="#f0f3f5" d="M 583.5,428.5 C 549.167,428.5 514.833,428.5 480.5,428.5C 480.5,427.167 480.5,425.833 480.5,424.5C 514.664,423.336 548.998,423.169 583.5,424C 584.801,425.616 584.801,427.116 583.5,428.5 Z"/></g>
<g><path style="opacity:1" fill="#5d7178" d="M 638.5,303.5 C 638.167,303.5 637.833,303.5 637.5,303.5C 636.5,303.5 635.5,303.5 634.5,303.5C 632.833,303.5 631.167,303.5 629.5,303.5C 627.833,303.5 626.167,303.5 624.5,303.5C 568.167,303.5 511.833,303.5 455.5,303.5C 455.5,306.833 455.5,310.167 455.5,313.5C 511.003,313.168 566.336,313.501 621.5,314.5C 565.833,314.5 510.167,314.5 454.5,314.5C 454.5,310.5 454.5,306.5 454.5,302.5C 516.002,302.168 577.336,302.501 638.5,303.5 Z"/></g>
<g><path style="opacity:1" fill="#40525e" d="M 637.5,303.5 C 637.833,303.5 638.167,303.5 638.5,303.5C 638.5,384.5 638.5,465.5 638.5,546.5C 628.748,546.832 619.748,546.499 611.5,545.5C 620.167,545.5 628.833,545.5 637.5,545.5C 637.5,464.833 637.5,384.167 637.5,303.5 Z"/></g>
<g><path style="opacity:1" fill="#042939" d="M 624.5,303.5 C 626.167,303.5 627.833,303.5 629.5,303.5C 629.5,383.5 629.5,463.5 629.5,543.5C 631.167,543.5 632.833,543.5 634.5,543.5C 634.5,463.5 634.5,383.5 634.5,303.5C 635.5,303.5 636.5,303.5 637.5,303.5C 637.5,384.167 637.5,464.833 637.5,545.5C 628.833,545.5 620.167,545.5 611.5,545.5C 614.563,540.048 618.563,535.382 623.5,531.5C 623.297,533.044 622.63,534.378 621.5,535.5C 623.067,537.896 623.9,540.563 624,543.5C 624.5,463.501 624.667,383.501 624.5,303.5 Z"/></g>
<g><path style="opacity:1" fill="#03293b" d="M 629.5,303.5 C 631.167,303.5 632.833,303.5 634.5,303.5C 634.5,383.5 634.5,463.5 634.5,543.5C 632.833,543.5 631.167,543.5 629.5,543.5C 629.5,463.5 629.5,383.5 629.5,303.5 Z"/></g>
<g><path style="opacity:1" fill="#04283b" d="M 624.5,303.5 C 624.667,383.501 624.5,463.501 624,543.5C 623.9,540.563 623.067,537.896 621.5,535.5C 622.63,534.378 623.297,533.044 623.5,531.5C 623.667,459.499 623.5,387.499 623,315.5C 622.617,314.944 622.117,314.611 621.5,314.5C 566.336,313.501 511.003,313.168 455.5,313.5C 455.5,310.167 455.5,306.833 455.5,303.5C 511.833,303.5 568.167,303.5 624.5,303.5 Z"/></g>
<g><path style="opacity:1" fill="#afc6ca" d="M 430.5,531.5 C 430.833,531.5 431.167,531.5 431.5,531.5C 410.526,533.489 389.193,534.156 367.5,533.5C 388.5,532.833 409.5,532.167 430.5,531.5 Z"/></g>
<g><path style="opacity:1" fill="#fcfcfd" d="M 436.5,532.5 C 437.167,533.5 437.833,534.5 438.5,535.5C 438.649,536.552 438.483,537.552 438,538.5C 413.706,537.176 389.539,535.843 365.5,534.5C 365.842,533.662 366.508,533.328 367.5,533.5C 389.193,534.156 410.526,533.489 431.5,531.5C 431.56,530.957 431.893,530.624 432.5,530.5C 433.622,531.63 434.956,532.297 436.5,532.5 Z"/></g>
<g><path style="opacity:1" fill="#062a3b" d="M 369.5,537.5 C 391.169,537.333 412.836,537.5 434.5,538C 443.761,547.954 454.594,550.12 467,544.5C 467.5,552.827 467.666,561.16 467.5,569.5C 430.833,569.5 394.167,569.5 357.5,569.5C 357.334,562.492 357.5,555.492 358,548.5C 360.437,543.226 364.271,539.56 369.5,537.5 Z"/></g>
<g><path style="opacity:1" fill="#092b3b" d="M 591.5,532.5 C 599.196,532.169 606.862,532.503 614.5,533.5C 607.254,541.679 600.254,550.013 593.5,558.5C 592.883,558.611 592.383,558.944 592,559.5C 591.5,550.506 591.334,541.506 591.5,532.5 Z"/></g>
<g><path style="opacity:1" fill="#ccd3cf" d="M 591.5,532.5 C 591.334,541.506 591.5,550.506 592,559.5C 592.383,558.944 592.883,558.611 593.5,558.5C 593.179,560.048 592.179,560.715 590.5,560.5C 590.173,550.985 590.506,541.652 591.5,532.5 Z"/></g>
<g><path style="opacity:1" fill="#ecf2f4" d="M 437.5,548.5 C 445.986,548.151 449.82,552.151 449,560.5C 444.076,568.088 438.743,568.421 433,561.5C 432.333,558.833 432.333,556.167 433,553.5C 434.707,551.963 436.207,550.296 437.5,548.5 Z"/></g>
<g><path style="opacity:1" fill="#0e2e3b" d="M 439.5,553.5 C 442.352,553.352 444.019,554.686 444.5,557.5C 442.118,562.813 439.785,562.813 437.5,557.5C 437.803,555.886 438.47,554.552 439.5,553.5 Z"/></g>
<g><path style="opacity:1" fill="#596d75" d="M 473.5,540.5 C 473.5,548.5 473.5,556.5 473.5,564.5C 510.833,564.5 548.167,564.5 585.5,564.5C 585.833,564.5 586.167,564.5 586.5,564.5C 548.67,565.499 510.67,565.832 472.5,565.5C 472.174,556.983 472.507,548.65 473.5,540.5 Z"/></g>
<g><path style="opacity:1" fill="#9db0b8" d="M 589.5,569.5 C 552.167,570.167 514.833,570.833 477.5,571.5C 476.244,571.539 475.244,571.039 474.5,570C 512.832,569.5 551.165,569.333 589.5,569.5 Z"/></g>
<g><path style="opacity:1" fill="#082b3c" d="M 481.5,595.5 C 435.833,595.5 390.167,595.5 344.5,595.5C 344.5,591.167 344.5,586.833 344.5,582.5C 345.276,578.557 347.609,576.057 351.5,575C 392.167,574.333 432.833,574.333 473.5,575C 477.112,575.889 479.612,578.055 481,581.5C 481.499,586.155 481.666,590.821 481.5,595.5 Z"/></g>
<g><path style="opacity:1" fill="#a6b4ba" d="M 344.5,582.5 C 344.5,586.833 344.5,591.167 344.5,595.5C 390.167,595.5 435.833,595.5 481.5,595.5C 435.67,596.499 389.67,596.832 343.5,596.5C 343.181,591.637 343.514,586.97 344.5,582.5 Z"/></g>
<g><path style="opacity:1" fill="#f9fbfb" d="M 277.5,645.5 C 277.5,654.167 277.5,662.833 277.5,671.5C 288.5,671.5 299.5,671.5 310.5,671.5C 310.5,674.167 310.5,676.833 310.5,679.5C 299.321,679.172 288.321,679.505 277.5,680.5C 276.506,690.319 276.173,700.319 276.5,710.5C 288.833,710.5 301.167,710.5 313.5,710.5C 313.5,713.167 313.5,715.833 313.5,718.5C 298.5,718.5 283.5,718.5 268.5,718.5C 268.5,691.5 268.5,664.5 268.5,637.5C 283.167,637.5 297.833,637.5 312.5,637.5C 312.5,639.833 312.5,642.167 312.5,644.5C 300.655,644.172 288.988,644.505 277.5,645.5 Z"/></g>
<g><path style="opacity:1" fill="#f7fafa" d="M 502.5,644.5 C 490.167,644.5 477.833,644.5 465.5,644.5C 465.5,654.833 465.5,665.167 465.5,675.5C 476.833,675.5 488.167,675.5 499.5,675.5C 499.5,678.167 499.5,680.833 499.5,683.5C 488.5,683.5 477.5,683.5 466.5,683.5C 466.5,695.167 466.5,706.833 466.5,718.5C 463.167,718.5 459.833,718.5 456.5,718.5C 456.5,691.167 456.5,663.833 456.5,636.5C 471.833,636.5 487.167,636.5 502.5,636.5C 502.5,639.167 502.5,641.833 502.5,644.5 Z"/></g>
<g><path style="opacity:1" fill="#cedce2" d="M 277.5,645.5 C 288.988,644.505 300.655,644.172 312.5,644.5C 312.5,642.167 312.5,639.833 312.5,637.5C 297.833,637.5 283.167,637.5 268.5,637.5C 268.5,664.5 268.5,691.5 268.5,718.5C 267.502,691.338 267.169,664.005 267.5,636.5C 282.833,636.5 298.167,636.5 313.5,636.5C 313.5,639.5 313.5,642.5 313.5,645.5C 301.5,645.5 289.5,645.5 277.5,645.5 Z"/></g>
<g><path style="opacity:1" fill="#798d96" d="M 502.5,644.5 C 490.678,645.495 478.678,645.828 466.5,645.5C 466.5,655.167 466.5,664.833 466.5,674.5C 477.833,674.5 489.167,674.5 500.5,674.5C 500.81,677.713 500.477,680.713 499.5,683.5C 499.5,680.833 499.5,678.167 499.5,675.5C 488.167,675.5 476.833,675.5 465.5,675.5C 465.5,665.167 465.5,654.833 465.5,644.5C 477.833,644.5 490.167,644.5 502.5,644.5 Z"/></g>
<g><path style="opacity:1" fill="#334751" d="M 407.5,656.5 C 413.987,655.346 420.654,655.179 427.5,656C 428.337,657.011 428.67,658.178 428.5,659.5C 421.796,656.85 414.796,655.85 407.5,656.5 Z"/></g>
<g><path style="opacity:1" fill="#697f87" d="M 334.5,657.5 C 330.958,657.187 327.625,657.521 324.5,658.5C 323.957,658.44 323.624,658.107 323.5,657.5C 327.315,656.192 330.981,656.192 334.5,657.5 Z"/></g>
<g><path style="opacity:1" fill="#677e87" d="M 366.5,657.5 C 370.019,656.192 373.685,656.192 377.5,657.5C 377.376,658.107 377.043,658.44 376.5,658.5C 373.375,657.521 370.042,657.187 366.5,657.5 Z"/></g>
<g><path style="opacity:1" fill="#f3f7f8" d="M 538.5,682.5 C 542.5,682.5 546.5,682.5 550.5,682.5C 550.81,679.287 550.477,676.287 549.5,673.5C 549.265,669.43 547.265,666.597 543.5,665C 535.222,663.57 527.389,664.736 520,668.5C 518.744,666.246 517.577,663.912 516.5,661.5C 525.593,656.766 535.259,655.266 545.5,657C 552.862,658.094 557.362,662.261 559,669.5C 559.5,685.83 559.667,702.163 559.5,718.5C 556.833,718.5 554.167,718.5 551.5,718.5C 551.875,715.603 551.375,712.937 550,710.5C 545.014,717.664 538.18,720.664 529.5,719.5C 514.298,719.452 507.798,711.786 510,696.5C 516.323,685.655 525.823,680.988 538.5,682.5 Z"/></g>
<g><path style="opacity:1" fill="#f4f7f7" d="M 635.5,681.5 C 634.505,693.655 634.171,705.989 634.5,718.5C 631.833,718.5 629.167,718.5 626.5,718.5C 626.5,698.167 626.5,677.833 626.5,657.5C 628.833,657.5 631.167,657.5 633.5,657.5C 633.933,660.166 634.433,662.832 635,665.5C 641.751,656.858 650.585,654.025 661.5,657C 666.156,658.647 669.989,661.48 673,665.5C 683.016,654.467 694.516,652.634 707.5,660C 709.956,662.408 711.789,665.241 713,668.5C 713.5,685.163 713.667,701.83 713.5,718.5C 710.5,718.5 707.5,718.5 704.5,718.5C 704.667,703.163 704.5,687.83 704,672.5C 701.877,666.271 697.544,663.604 691,664.5C 682.775,663.947 677.441,667.614 675,675.5C 674.5,689.829 674.333,704.163 674.5,718.5C 671.167,718.5 667.833,718.5 664.5,718.5C 664.667,703.163 664.5,687.83 664,672.5C 662.213,666.601 658.213,663.935 652,664.5C 640.949,664.718 635.449,670.385 635.5,681.5 Z"/></g>
<g><path style="opacity:1" fill="#f5f8f9" d="M 407.5,656.5 C 414.796,655.85 421.796,656.85 428.5,659.5C 431.587,662.115 433.754,665.448 435,669.5C 435.5,685.83 435.667,702.163 435.5,718.5C 433.167,718.5 430.833,718.5 428.5,718.5C 428.565,715.529 427.731,712.862 426,710.5C 417.276,720.114 406.776,722.614 394.5,718C 388.645,714.171 385.645,708.671 385.5,701.5C 387.454,690.384 394.12,684.217 405.5,683C 408.817,682.502 412.15,682.335 415.5,682.5C 419.167,682.5 422.833,682.5 426.5,682.5C 426.815,678.629 426.482,674.962 425.5,671.5C 424.409,668.572 422.409,666.406 419.5,665C 411.34,663.548 403.673,664.714 396.5,668.5C 393.993,666.192 393.326,663.525 394.5,660.5C 398.696,658.701 403.03,657.368 407.5,656.5 Z"/></g>
<g><path style="opacity:1" fill="#f4f7f7" d="M 587.5,718.5 C 584.833,718.5 582.167,718.5 579.5,718.5C 579.5,698.167 579.5,677.833 579.5,657.5C 581.833,657.5 584.167,657.5 586.5,657.5C 586.177,661.226 586.511,664.893 587.5,668.5C 588.107,668.376 588.44,668.043 588.5,667.5C 594.017,657.869 602.35,654.203 613.5,656.5C 613.5,659.5 613.5,662.5 613.5,665.5C 602.989,662.675 595.156,666.008 590,675.5C 588.885,689.938 588.051,704.272 587.5,718.5 Z"/></g>
<g><path style="opacity:1" fill="#f4f7f8" d="M 334.5,657.5 C 339.775,665.125 345.109,672.792 350.5,680.5C 355.891,672.792 361.225,665.125 366.5,657.5C 370.042,657.187 373.375,657.521 376.5,658.5C 369.26,667.577 362.593,677.077 356.5,687C 363.315,697.312 370.315,707.478 377.5,717.5C 374.375,718.479 371.042,718.813 367.5,718.5C 361.858,710.518 356.192,702.518 350.5,694.5C 344.808,702.518 339.142,710.518 333.5,718.5C 329.958,718.813 326.625,718.479 323.5,717.5C 330.685,707.478 337.685,697.312 344.5,687C 338.407,677.077 331.74,667.577 324.5,658.5C 327.625,657.521 330.958,657.187 334.5,657.5 Z"/></g>
<g><path style="opacity:1" fill="#84929a" d="M 586.5,657.5 C 587.167,660.833 587.833,664.167 588.5,667.5C 588.44,668.043 588.107,668.376 587.5,668.5C 586.511,664.893 586.177,661.226 586.5,657.5 Z"/></g>
<g><path style="opacity:1" fill="#8da0a8" d="M 310.5,671.5 C 311.477,674.287 311.81,677.287 311.5,680.5C 300.167,680.5 288.833,680.5 277.5,680.5C 288.321,679.505 299.321,679.172 310.5,679.5C 310.5,676.833 310.5,674.167 310.5,671.5 Z"/></g>
<g><path style="opacity:1" fill="#6d828b" d="M 425.5,671.5 C 426.482,674.962 426.815,678.629 426.5,682.5C 422.833,682.5 419.167,682.5 415.5,682.5C 418.625,681.521 421.958,681.187 425.5,681.5C 425.5,678.167 425.5,674.833 425.5,671.5 Z"/></g>
<g><path style="opacity:1" fill="#758991" d="M 549.5,673.5 C 550.477,676.287 550.81,679.287 550.5,682.5C 546.5,682.5 542.5,682.5 538.5,682.5C 541.962,681.518 545.629,681.185 549.5,681.5C 549.5,678.833 549.5,676.167 549.5,673.5 Z"/></g>
<g><path style="opacity:1" fill="#aebec5" d="M 586.5,657.5 C 584.167,657.5 581.833,657.5 579.5,657.5C 579.5,677.833 579.5,698.167 579.5,718.5C 582.167,718.5 584.833,718.5 587.5,718.5C 584.713,719.477 581.713,719.81 578.5,719.5C 578.5,698.5 578.5,677.5 578.5,656.5C 581.385,656.194 584.052,656.527 586.5,657.5 Z"/></g>
<g><path style="opacity:1" fill="#bdcad0" d="M 633.5,657.5 C 631.167,657.5 628.833,657.5 626.5,657.5C 626.5,677.833 626.5,698.167 626.5,718.5C 626.167,718.5 625.833,718.5 625.5,718.5C 625.5,697.833 625.5,677.167 625.5,656.5C 628.385,656.194 631.052,656.527 633.5,657.5 Z"/></g>
<g><path style="opacity:1" fill="#94a2ad" d="M 635.5,681.5 C 635.5,694.167 635.5,706.833 635.5,719.5C 631.958,719.813 628.625,719.479 625.5,718.5C 625.833,718.5 626.167,718.5 626.5,718.5C 629.167,718.5 631.833,718.5 634.5,718.5C 634.171,705.989 634.505,693.655 635.5,681.5 Z"/></g>
<g><path style="opacity:1" fill="#092b3b" d="M 410.5,689.5 C 415.5,689.5 420.5,689.5 425.5,689.5C 425.5,692.167 425.5,694.833 425.5,697.5C 423.894,707.264 418.061,712.264 408,712.5C 396.417,711.085 393.084,705.085 398,694.5C 401.731,691.756 405.898,690.089 410.5,689.5 Z"/></g>
<g><path style="opacity:1" fill="#6a7a86" d="M 410.5,689.5 C 415.64,688.512 420.974,688.179 426.5,688.5C 426.81,691.713 426.477,694.713 425.5,697.5C 425.5,694.833 425.5,692.167 425.5,689.5C 420.5,689.5 415.5,689.5 410.5,689.5 Z"/></g>
<g><path style="opacity:1" fill="#0a2c3c" d="M 534.5,688.5 C 539.5,688.5 544.5,688.5 549.5,688.5C 550.879,707.791 542.213,715.124 523.5,710.5C 518.223,704.67 518.223,698.837 523.5,693C 527.157,691.178 530.824,689.678 534.5,688.5 Z"/></g>
<g><path style="opacity:1" fill="#5e737d" d="M 277.5,680.5 C 277.5,690.167 277.5,699.833 277.5,709.5C 289.678,709.172 301.678,709.505 313.5,710.5C 301.167,710.5 288.833,710.5 276.5,710.5C 276.173,700.319 276.506,690.319 277.5,680.5 Z"/></g>
<g><path style="opacity:1" fill="#646f74" d="M 323.5,717.5 C 326.625,718.479 329.958,718.813 333.5,718.5C 329.981,719.808 326.315,719.808 322.5,718.5C 322.624,717.893 322.957,717.56 323.5,717.5 Z"/></g>
<g><path style="opacity:1" fill="#646f74" d="M 377.5,717.5 C 378.043,717.56 378.376,717.893 378.5,718.5C 374.685,719.808 371.019,719.808 367.5,718.5C 371.042,718.813 374.375,718.479 377.5,717.5 Z"/></g>
</svg>
