<?xml version="1.0" encoding="utf-8"?>
<svg xmlns="http://www.w3.org/2000/svg" viewBox="0 0 500 500" style="shape-rendering: geometricprecision;">
  <g transform="matrix(1, 0, 0, 1, -61.87624, 17.926376)">
    <path style="opacity: 0.945;" d="M 270.5,95.5 C 266.343,94.8135 265.009,96.3135 266.5,100C 266.361,101.301 265.695,102.134 264.5,102.5C 264.414,101.504 264.748,100.671 265.5,100C 263.5,98.6667 261.5,97.3333 259.5,96C 254.044,93.715 248.377,91.8817 242.5,90.5C 235.961,91.716 231.627,95.3827 229.5,101.5C 229.5,100.5 229.5,99.5 229.5,98.5C 228.167,98.5 226.833,98.5 225.5,98.5C 225.912,100.973 224.912,102.306 222.5,102.5C 226.259,89.4005 234.926,83.9005 248.5,86C 256.029,88.9369 263.363,92.1035 270.5,95.5 Z"/>
  </g>
  <g transform="matrix(1, 0, 0, 1, -61.87624, 17.926376)">
    <path style="opacity: 0.966;" d="M 229.5,101.5 C 229.691,105.262 230.358,108.929 231.5,112.5C 231.047,113.458 230.381,114.292 229.5,115C 233.516,117.396 233.516,118.229 229.5,117.5C 227.436,114.166 224.936,111.166 222,108.5C 217.922,109.323 215.089,111.656 213.5,115.5C 211.416,117.993 211.083,120.66 212.5,123.5C 214.009,126.678 215.342,130.011 216.5,133.5C 215.357,133.908 214.357,134.575 213.5,135.5C 214.309,137.071 214.643,138.738 214.5,140.5C 211.518,135.189 209.018,129.522 207,123.5C 205.9,111.778 211.066,104.778 222.5,102.5C 224.912,102.306 225.912,100.973 225.5,98.5C 226.833,98.5 228.167,98.5 229.5,98.5C 229.5,99.5 229.5,100.5 229.5,101.5 Z"/>
  </g>
  <g transform="matrix(1, 0, 0, 1, -61.87624, 17.926376)">
    <path style="opacity: 0.974;" d="M 270.5,95.5 C 277.247,97.6948 283.914,100.195 290.5,103C 304.192,113.15 304.858,124.15 292.5,136C 286.325,138.917 279.992,139.25 273.5,137C 265.591,133.543 257.591,130.377 249.5,127.5C 250.792,126.713 253.459,126.38 257.5,126.5C 256.23,125.712 255.23,124.712 254.5,123.5C 257.978,116.643 261.311,109.643 264.5,102.5C 265.695,102.134 266.361,101.301 266.5,100C 265.009,96.3135 266.343,94.8135 270.5,95.5 Z M 270.5,101.5 C 278.762,103.715 286.262,107.381 293,112.5C 297.015,127.819 291.182,134.319 275.5,132C 270.364,130.404 265.531,128.237 261,125.5C 263.835,117.477 267.002,109.477 270.5,101.5 Z"/>
  </g>
  <g transform="matrix(1, 0, 0, 1, -61.87624, 17.926376)">
    <path style="opacity: 0.2;" d="M 213.5,115.5 C 212.908,118.127 212.575,120.794 212.5,123.5C 211.083,120.66 211.416,117.993 213.5,115.5 Z"/>
  </g>
  <g transform="matrix(1, 0, 0, 1, -61.87624, 17.926376)">
    <path style="opacity: 0.972;" d="M 231.5,112.5 C 233.054,113.693 234.721,114.86 236.5,116C 242.849,118.049 248.849,120.549 254.5,123.5C 255.23,124.712 256.23,125.712 257.5,126.5C 253.459,126.38 250.792,126.713 249.5,127.5C 253.028,136.084 256.362,144.751 259.5,153.5C 258.849,152.909 258.182,152.243 257.5,151.5C 256.914,151.709 256.414,152.043 256,152.5C 255.505,154.473 255.338,156.473 255.5,158.5C 253.186,151.757 250.352,145.091 247,138.5C 240.026,141.874 232.859,144.874 225.5,147.5C 226.028,146.279 226.695,145.113 227.5,144C 224.808,143.57 222.141,143.737 219.5,144.5C 219.5,143.167 219.5,141.833 219.5,140.5C 220.268,141.263 220.768,142.263 221,143.5C 229.428,140.307 237.594,136.64 245.5,132.5C 244.26,129.607 242.926,126.773 241.5,124C 236.99,122.582 232.99,120.415 229.5,117.5C 233.516,118.229 233.516,117.396 229.5,115C 230.381,114.292 231.047,113.458 231.5,112.5 Z"/>
  </g>
  <g transform="matrix(1, 0, 0, 1, -61.87624, 17.926376)">
    <path style="opacity: 0.964;" d="M 216.5,133.5 C 217.758,135.687 218.758,138.02 219.5,140.5C 219.5,141.833 219.5,143.167 219.5,144.5C 222.141,143.737 224.808,143.57 227.5,144C 226.695,145.113 226.028,146.279 225.5,147.5C 223.727,148.314 223.227,149.648 224,151.5C 226.521,158.276 229.687,164.609 233.5,170.5C 236.363,173.1 239.697,174.933 243.5,176C 242.095,177.269 240.429,177.769 238.5,177.5C 233.84,177.252 230.007,175.252 227,171.5C 222.279,161.392 218.113,151.058 214.5,140.5C 214.643,138.738 214.309,137.071 213.5,135.5C 214.357,134.575 215.357,133.908 216.5,133.5 Z"/>
  </g>
  <g transform="matrix(1, 0, 0, 1, -61.87624, 17.926376)">
    <path style="opacity: 0.02;" d="M 280.5,143.5 C 279.791,144.404 278.791,144.737 277.5,144.5C 277.768,146.099 277.434,147.432 276.5,148.5C 276.5,146.833 276.5,145.167 276.5,143.5C 277.833,143.5 279.167,143.5 280.5,143.5 Z"/>
  </g>
  <g transform="matrix(1, 0, 0, 1, -61.87624, 17.926376)">
    <path style="opacity: 0.615;" d="M 286.5,143.5 C 286.389,144.117 286.056,144.617 285.5,145C 298.833,145.167 312.167,145.333 325.5,145.5C 339.184,145.499 352.517,144.833 365.5,143.5C 365.833,143.5 366.167,143.5 366.5,143.5C 366.5,177.833 366.5,212.167 366.5,246.5C 365.833,220.5 365.167,194.5 364.5,168.5C 364.72,161.457 364.386,154.457 363.5,147.5C 350.574,146.825 336.907,146.491 322.5,146.5C 308.5,146.833 294.5,147.167 280.5,147.5C 280.624,148.107 280.957,148.44 281.5,148.5C 281.5,148.833 281.5,149.167 281.5,149.5C 280.662,149.842 280.328,150.508 280.5,151.5C 279.5,151.5 278.5,151.5 277.5,151.5C 277.672,150.508 277.338,149.842 276.5,149.5C 276.5,149.167 276.5,148.833 276.5,148.5C 277.434,147.432 277.768,146.099 277.5,144.5C 278.791,144.737 279.791,144.404 280.5,143.5C 282.611,142.258 284.611,142.258 286.5,143.5 Z"/>
  </g>
  <g transform="matrix(1, 0, 0, 1, -61.87624, 17.926376)">
    <path style="opacity: 0.313;" d="M 286.5,143.5 C 312.833,143.5 339.167,143.5 365.5,143.5C 352.517,144.833 339.184,145.499 325.5,145.5C 312.167,145.333 298.833,145.167 285.5,145C 286.056,144.617 286.389,144.117 286.5,143.5 Z"/>
  </g>
  <g transform="matrix(1, 0, 0, 1, -61.87624, 17.926376)">
    <path style="opacity: 0.016;" d="M 363.5,147.5 C 335.995,147.169 308.662,147.502 281.5,148.5C 280.957,148.44 280.624,148.107 280.5,147.5C 294.5,147.167 308.5,146.833 322.5,146.5C 336.907,146.491 350.574,146.825 363.5,147.5 Z"/>
  </g>
  <g transform="matrix(1, 0, 0, 1, -61.87624, 17.926376)">
    <path style="opacity: 0.231;" d="M 281.5,149.5 C 307.167,150.167 332.833,150.833 358.5,151.5C 356.167,151.5 353.833,151.5 351.5,151.5C 327.833,151.5 304.167,151.5 280.5,151.5C 280.328,150.508 280.662,149.842 281.5,149.5 Z"/>
  </g>
  <g transform="matrix(1, 0, 0, 1, -61.87624, 17.926376)">
    <path style="opacity: 0.994;" d="M 277.5,151.5 C 278.5,151.5 279.5,151.5 280.5,151.5C 304.167,151.5 327.833,151.5 351.5,151.5C 351.833,152.167 352.167,152.833 352.5,153.5C 326.328,153.169 300.328,153.502 274.5,154.5C 274.133,156.456 273.8,158.456 273.5,160.5C 272.026,161.436 271.026,162.77 270.5,164.5C 269.005,164.585 268.005,163.919 267.5,162.5C 268.521,161.099 269.521,159.765 270.5,158.5C 271.468,156.393 271.802,154.059 271.5,151.5C 273.5,151.5 275.5,151.5 277.5,151.5 Z"/>
  </g>
  <g transform="matrix(1, 0, 0, 1, -61.87624, 17.926376)">
    <path style="opacity: 0.133;" d="M 276.5,149.5 C 277.338,149.842 277.672,150.508 277.5,151.5C 275.5,151.5 273.5,151.5 271.5,151.5C 271.802,154.059 271.468,156.393 270.5,158.5C 270.5,155.833 270.5,153.167 270.5,150.5C 272.735,150.795 274.735,150.461 276.5,149.5 Z"/>
  </g>
  <g transform="matrix(1, 0, 0, 1, -61.87624, 17.926376)">
    <path style="opacity: 0.106;" d="M 352.5,153.5 C 353.791,153.263 354.791,153.596 355.5,154.5C 355.167,154.5 354.833,154.5 354.5,154.5C 328.491,154.167 302.491,154.5 276.5,155.5C 278.571,157.185 280.571,158.852 282.5,160.5C 281.244,160.904 280.077,161.571 279,162.5C 277.433,161.144 275.6,160.477 273.5,160.5C 273.8,158.456 274.133,156.456 274.5,154.5C 300.328,153.502 326.328,153.169 352.5,153.5 Z"/>
  </g>
  <g transform="matrix(1, 0, 0, 1, -61.87624, 17.926376)">
    <path style="opacity: 0.543;" d="M 351.5,151.5 C 353.833,151.5 356.167,151.5 358.5,151.5C 359.659,184.762 359.826,218.095 359,251.5C 357.308,253.359 355.808,255.359 354.5,257.5C 355.325,258.386 356.325,258.719 357.5,258.5C 354.375,259.479 351.042,259.813 347.5,259.5C 348.584,257.681 349.918,256.015 351.5,254.5C 345.872,251.967 343.206,253.633 343.5,259.5C 343.34,261.199 343.506,262.866 344,264.5C 344.333,263.833 344.667,263.167 345,262.5C 345.791,263.745 346.291,265.078 346.5,266.5C 345.728,267.694 344.728,268.694 343.5,269.5C 328.163,269.667 312.83,269.5 297.5,269C 299.5,268.667 301.5,268.333 303.5,268C 298.649,267.826 293.982,267.326 289.5,266.5C 306.18,266.833 322.847,266.499 339.5,265.5C 340.068,260.461 340.401,255.461 340.5,250.5C 345.405,249.555 350.405,249.221 355.5,249.5C 355.5,217.833 355.5,186.167 355.5,154.5C 354.791,153.596 353.791,153.263 352.5,153.5C 352.167,152.833 351.833,152.167 351.5,151.5 Z"/>
  </g>
  <g transform="matrix(1, 0, 0, 1, -61.87624, 17.926376)">
    <path style="opacity: 0.031;" d="M 354.5,154.5 C 354.833,154.5 355.167,154.5 355.5,154.5C 355.5,186.167 355.5,217.833 355.5,249.5C 350.405,249.221 345.405,249.555 340.5,250.5C 340.167,250.5 339.833,250.5 339.5,250.5C 339.833,249.5 340.5,248.833 341.5,248.5C 345.833,248.5 350.167,248.5 354.5,248.5C 354.5,217.167 354.5,185.833 354.5,154.5 Z"/>
  </g>
  <g transform="matrix(1, 0, 0, 1, -61.87624, 17.926376)">
    <path style="opacity: 0.993;" d="M 259.5,153.5 C 262.622,168.225 256.622,176.559 241.5,178.5C 240.274,178.48 239.274,178.147 238.5,177.5C 240.429,177.769 242.095,177.269 243.5,176C 239.697,174.933 236.363,173.1 233.5,170.5C 241.75,174.921 248.583,173.254 254,165.5C 254.977,163.26 255.477,160.927 255.5,158.5C 255.338,156.473 255.505,154.473 256,152.5C 256.414,152.043 256.914,151.709 257.5,151.5C 258.182,152.243 258.849,152.909 259.5,153.5 Z"/>
  </g>
  <g transform="matrix(1, 0, 0, 1, -61.87624, 17.926376)">
    <path style="opacity: 0.412;" d="M 366.5,143.5 C 367.499,182.996 367.832,222.663 367.5,262.5C 361.491,262.334 355.491,262.501 349.5,263C 348.837,264.518 347.837,265.685 346.5,266.5C 346.291,265.078 345.791,263.745 345,262.5C 344.667,263.167 344.333,263.833 344,264.5C 343.506,262.866 343.34,261.199 343.5,259.5C 344.222,259.918 344.722,260.584 345,261.5C 345.708,260.619 346.542,259.953 347.5,259.5C 347.351,260.552 347.517,261.552 348,262.5C 354.076,261.524 360.242,261.19 366.5,261.5C 366.5,256.5 366.5,251.5 366.5,246.5C 366.5,212.167 366.5,177.833 366.5,143.5 Z"/>
  </g>
  <g transform="matrix(1, 0, 0, 1, -61.87624, 17.926376)">
    <path style="opacity: 0.914;" d="M 273.5,160.5 C 275.6,160.477 277.433,161.144 279,162.5C 280.077,161.571 281.244,160.904 282.5,160.5C 285.242,162.255 288.076,163.922 291,165.5C 291.684,166.784 291.517,167.951 290.5,169C 307.407,169.174 324.241,169.674 341,170.5C 341.617,171.449 341.451,172.282 340.5,173C 323.837,173.5 307.17,173.667 290.5,173.5C 290.649,172.448 290.483,171.448 290,170.5C 288.598,172.633 286.765,174.3 284.5,175.5C 283.167,176.5 283.167,177.5 284.5,178.5C 284.145,179.522 283.478,180.189 282.5,180.5C 282.617,178.516 281.95,176.85 280.5,175.5C 280.968,173.866 281.968,172.7 283.5,172C 282.748,171.329 282.414,170.496 282.5,169.5C 281.5,169.167 280.833,168.5 280.5,167.5C 278.61,167.703 277.11,167.037 276,165.5C 276.058,167.435 276.891,169.102 278.5,170.5C 276.629,170.141 275.129,169.141 274,167.5C 273.626,168.416 273.126,169.25 272.5,170C 274.066,170.608 275.4,171.442 276.5,172.5C 274.585,172.216 272.919,172.549 271.5,173.5C 269.856,172.634 268.189,172.134 266.5,172C 267.471,173.481 268.804,174.315 270.5,174.5C 270.611,176.648 269.944,176.981 268.5,175.5C 267.702,175.957 267.369,176.624 267.5,177.5C 265.609,176.464 263.776,176.464 262,177.5C 256.277,187.882 249.777,197.715 242.5,207C 243.056,207.383 243.389,207.883 243.5,208.5C 242.167,207.167 240.833,205.833 239.5,204.5C 248.031,192.089 256.031,179.422 263.5,166.5C 265.467,166.261 267.301,166.594 269,167.5C 270.039,166.756 270.539,165.756 270.5,164.5C 271.026,162.77 272.026,161.436 273.5,160.5 Z M 271.5,173.5 C 271.5,174.167 271.167,174.5 270.5,174.5C 268.804,174.315 267.471,173.481 266.5,172C 268.189,172.134 269.856,172.634 271.5,173.5 Z M 282.5,169.5 C 283.216,166.988 284.216,166.988 285.5,169.5C 284.767,170.087 283.767,170.087 282.5,169.5 Z M 278.5,170.5 C 278.5,171.833 277.833,172.5 276.5,172.5C 275.4,171.442 274.066,170.608 272.5,170C 273.126,169.25 273.626,168.416 274,167.5C 275.129,169.141 276.629,170.141 278.5,170.5 Z M 276.5,163.5 C 278.404,163.738 279.738,164.738 280.5,166.5C 278.596,166.262 277.262,165.262 276.5,163.5 Z"/>
  </g>
  <g transform="matrix(1, 0, 0, 1, -61.87624, 17.926376)">
    <path style="opacity: 0.811;" d="M 280.5,167.5 C 280.833,168.5 281.5,169.167 282.5,169.5C 282.414,170.496 282.748,171.329 283.5,172C 281.968,172.7 280.968,173.866 280.5,175.5C 281.95,176.85 282.617,178.516 282.5,180.5C 280.065,183.374 278.731,186.707 278.5,190.5C 283.198,191.208 286.198,193.875 287.5,198.5C 285.632,197.326 284.632,197.993 284.5,200.5C 282.453,197.293 279.619,194.959 276,193.5C 275.098,193.743 274.265,194.077 273.5,194.5C 273.756,192.224 275.09,191.057 277.5,191C 277.253,189.187 276.92,187.353 276.5,185.5C 275.482,186.193 274.482,186.859 273.5,187.5C 273.511,185.983 274.177,184.816 275.5,184C 272.645,181.969 269.978,179.803 267.5,177.5C 267.369,176.624 267.702,175.957 268.5,175.5C 269.944,176.981 270.611,176.648 270.5,174.5C 271.167,174.5 271.5,174.167 271.5,173.5C 272.919,172.549 274.585,172.216 276.5,172.5C 277.833,172.5 278.5,171.833 278.5,170.5C 276.891,169.102 276.058,167.435 276,165.5C 277.11,167.037 278.61,167.703 280.5,167.5 Z"/>
  </g>
  <g transform="matrix(1, 0, 0, 1, -61.87624, 17.926376)">
    <path style="opacity: 0.838;" d="M 290.5,180.5 C 307.5,180.5 324.5,180.5 341.5,180.5C 341.67,181.822 341.337,182.989 340.5,184C 324.167,184.667 307.833,184.667 291.5,184C 290.663,182.989 290.33,181.822 290.5,180.5 Z"/>
  </g>
  <g transform="matrix(1, 0, 0, 1, -61.87624, 17.926376)">
    <path style="opacity: 0.87;" d="M 273.5,188.5 C 270.547,193.45 267.214,198.117 263.5,202.5C 261.283,203.369 258.95,203.702 256.5,203.5C 255.645,202.469 254.978,201.303 254.5,200C 256.952,196.266 259.286,192.433 261.5,188.5C 265.013,186.869 268.013,187.536 270.5,190.5C 271.518,189.807 272.518,189.141 273.5,188.5 Z M 263.5,194.5 C 263.262,196.404 262.262,197.738 260.5,198.5C 260.738,196.596 261.738,195.262 263.5,194.5 Z"/>
  </g>
  <g transform="matrix(1, 0, 0, 1, -61.87624, 17.926376)">
    <path style="opacity: 0.438;" d="M 291.5,190.5 C 307.837,190.333 324.17,190.5 340.5,191C 341.727,192.587 341.394,193.921 339.5,195C 323.833,195.667 308.167,195.667 292.5,195C 290.218,193.916 289.884,192.416 291.5,190.5 Z"/>
  </g>
  <g transform="matrix(1, 0, 0, 1, -61.87624, 17.926376)">
    <path style="opacity: 0.776;" d="M 287.5,198.5 C 287.971,199.901 288.638,201.234 289.5,202.5C 306.456,201.348 323.456,201.181 340.5,202C 341.833,203 341.833,204 340.5,205C 338.333,205.167 336.167,205.333 334,205.5C 319.504,204.424 305.004,204.424 290.5,205.5C 290.217,204.711 289.717,204.044 289,203.5C 288,204.833 287,204.833 286,203.5C 285.536,204.094 285.369,204.761 285.5,205.5C 284.549,204.081 284.216,202.415 284.5,200.5C 284.632,197.993 285.632,197.326 287.5,198.5 Z"/>
  </g>
  <g transform="matrix(1, 0, 0, 1, -61.87624, 17.926376)">
    <path style="opacity: 0.039;" d="M 263.5,202.5 C 263.25,204.674 262.25,206.341 260.5,207.5C 260.414,206.504 260.748,205.671 261.5,205C 259.618,204.802 257.952,204.302 256.5,203.5C 258.95,203.702 261.283,203.369 263.5,202.5 Z"/>
  </g>
  <g transform="matrix(1, 0, 0, 1, -61.87624, 17.926376)">
    <path style="opacity: 0.335;" d="M 290.5,205.5 C 289.032,207.611 289.365,209.444 291.5,211C 307.833,211.333 324.167,211.667 340.5,212C 341.337,213.011 341.67,214.178 341.5,215.5C 324.167,215.5 306.833,215.5 289.5,215.5C 288.646,220.567 288.312,225.567 288.5,230.5C 287.609,231.11 286.609,231.443 285.5,231.5C 285.5,222.833 285.5,214.167 285.5,205.5C 285.369,204.761 285.536,204.094 286,203.5C 287,204.833 288,204.833 289,203.5C 289.717,204.044 290.217,204.711 290.5,205.5 Z"/>
  </g>
  <g transform="matrix(1, 0, 0, 1, -61.87624, 17.926376)">
    <path style="opacity: 0.875;" d="M 239.5,204.5 C 240.833,205.833 242.167,207.167 243.5,208.5C 246.754,210.137 249.754,212.137 252.5,214.5C 250.723,214.214 249.056,213.547 247.5,212.5C 245.279,212.439 244.946,213.105 246.5,214.5C 244.574,213.758 242.741,212.758 241,211.5C 239.887,212.76 239.72,213.927 240.5,215C 243.226,217.296 246.226,219.129 249.5,220.5C 250.386,219.675 250.719,218.675 250.5,217.5C 251.922,218.925 253.589,219.925 255.5,220.5C 252.925,224.12 249.591,226.787 245.5,228.5C 240.956,226.298 236.956,223.298 233.5,219.5C 235.059,214.202 237.059,209.202 239.5,204.5 Z"/>
  </g>
  <g transform="matrix(1, 0, 0, 1, -61.87624, 17.926376)">
    <path style="opacity: 0.955;" d="M 273.5,194.5 C 271.496,197.843 269.496,201.177 267.5,204.5C 270.076,207.31 271.91,210.644 273,214.5C 273.5,221.158 273.666,227.825 273.5,234.5C 274.5,234.5 275.5,234.5 276.5,234.5C 278.527,234.338 280.527,234.505 282.5,235C 279.916,235.86 277.583,237.027 275.5,238.5C 273.833,240.5 272.167,242.5 270.5,244.5C 270.715,242.821 270.048,241.821 268.5,241.5C 268.167,241.5 267.833,241.5 267.5,241.5C 261.202,240.17 254.535,239.503 247.5,239.5C 240.423,239.517 233.423,239.851 226.5,240.5C 240.127,238.518 254.127,237.851 268.5,238.5C 269.657,229.676 269.824,220.676 269,211.5C 268.184,210.177 267.017,209.511 265.5,209.5C 264.504,209.414 263.671,209.748 263,210.5C 261.021,214.3 258.521,217.634 255.5,220.5C 253.589,219.925 251.922,218.925 250.5,217.5C 249.128,216.488 247.795,215.488 246.5,214.5C 244.946,213.105 245.279,212.439 247.5,212.5C 249.056,213.547 250.723,214.214 252.5,214.5C 253.552,214.649 254.552,214.483 255.5,214C 257.03,211.648 258.697,209.481 260.5,207.5C 262.25,206.341 263.25,204.674 263.5,202.5C 267.214,198.117 270.547,193.45 273.5,188.5C 273.5,188.167 273.5,187.833 273.5,187.5C 274.482,186.859 275.482,186.193 276.5,185.5C 276.92,187.353 277.253,189.187 277.5,191C 275.09,191.057 273.756,192.224 273.5,194.5 Z"/>
  </g>
  <g transform="matrix(1, 0, 0, 1, -61.87624, 17.926376)">
    <path style="opacity: 0.055;" d="M 265.5,209.5 C 267.017,209.511 268.184,210.177 269,211.5C 269.824,220.676 269.657,229.676 268.5,238.5C 268.666,229.827 268.5,221.16 268,212.5C 266.955,211.627 266.122,210.627 265.5,209.5 Z"/>
  </g>
  <g transform="matrix(1, 0, 0, 1, -61.87624, 17.926376)">
    <path style="opacity: 0.872;" d="M 341.5,247.5 C 341.688,245.897 341.188,244.563 340,243.5C 337.196,245.344 334.03,246.011 330.5,245.5C 332.948,244.527 335.615,244.194 338.5,244.5C 338.5,243.5 338.5,242.5 338.5,241.5C 330.894,242.993 327.894,240.16 329.5,233C 328.5,232.333 327.5,232.333 326.5,233C 327.807,234.943 327.807,236.777 326.5,238.5C 326.388,234.661 325.721,234.661 324.5,238.5C 323.675,239.386 322.675,239.719 321.5,239.5C 321.67,238.178 321.337,237.011 320.5,236C 324.375,234.653 324.375,233.486 320.5,232.5C 321.193,231.482 321.859,230.482 322.5,229.5C 337.292,226.713 343.626,232.713 341.5,247.5 Z M 333.5,234.5 C 337.06,236.283 337.06,237.283 333.5,237.5C 333.5,236.5 333.5,235.5 333.5,234.5 Z"/>
  </g>
  <g transform="matrix(1, 0, 0, 1, -61.87624, 17.926376)">
    <path style="opacity: 0.773;" d="M 288.5,230.5 C 288.338,232.527 288.505,234.527 289,236.5C 293.56,241.527 294.56,247.193 292,253.5C 291.578,255.426 290.411,256.426 288.5,256.5C 287.791,255.596 286.791,255.263 285.5,255.5C 292.009,246.867 290.176,240.867 280,237.5C 278.467,237.773 276.967,238.106 275.5,238.5C 277.583,237.027 279.916,235.86 282.5,235C 280.527,234.505 278.527,234.338 276.5,234.5C 279.634,233.965 282.634,232.965 285.5,231.5C 286.609,231.443 287.609,231.11 288.5,230.5 Z"/>
  </g>
  <g transform="matrix(1, 0, 0, 1, -61.87624, 17.926376)">
    <path style="opacity: 0.885;" d="M 322.5,229.5 C 321.859,230.482 321.193,231.482 320.5,232.5C 324.375,233.486 324.375,234.653 320.5,236C 321.337,237.011 321.67,238.178 321.5,239.5C 322.675,239.719 323.675,239.386 324.5,238.5C 325.721,234.661 326.388,234.661 326.5,238.5C 326.672,239.492 326.338,240.158 325.5,240.5C 322.833,240.5 320.167,240.5 317.5,240.5C 317.5,241.833 317.5,243.167 317.5,244.5C 320.167,244.5 322.833,244.5 325.5,244.5C 326.473,246.948 326.806,249.615 326.5,252.5C 327.5,252.5 328.5,252.5 329.5,252.5C 329.5,250.833 329.5,249.167 329.5,247.5C 330.461,249.265 330.795,251.265 330.5,253.5C 327.956,253.896 325.789,253.229 324,251.5C 322.413,252.727 321.079,252.394 320,250.5C 319.517,251.448 319.351,252.448 319.5,253.5C 317.547,252.374 316.047,250.708 315,248.5C 312.36,239.879 314.86,233.546 322.5,229.5 Z"/>
  </g>
  <g transform="matrix(1, 0, 0, 1, -61.87624, 17.926376)">
    <path style="opacity: 0.89;" d="M 267.5,241.5 C 254.656,241.171 241.989,241.505 229.5,242.5C 228.209,243.542 228.209,244.708 229.5,246C 235.667,246.167 241.833,246.333 248,246.5C 254.538,246.496 260.705,245.83 266.5,244.5C 267.401,243.71 268.068,242.71 268.5,241.5C 270.048,241.821 270.715,242.821 270.5,244.5C 270.629,251.733 274.296,255.733 281.5,256.5C 277.769,258.528 278.435,259.528 283.5,259.5C 281.631,260.165 279.631,260.831 277.5,261.5C 278.623,263.482 278.623,265.482 277.5,267.5C 275.852,268.777 274.018,269.777 272,270.5C 273.094,268.123 273.594,265.456 273.5,262.5C 274.675,263.855 275.675,263.688 276.5,262C 274.75,260.681 272.75,260.181 270.5,260.5C 273.625,259.9 273.958,258.733 271.5,257C 260.152,256.168 248.819,256.334 237.5,257.5C 235.209,261.731 234.876,265.731 236.5,269.5C 236.5,269.833 236.5,270.167 236.5,270.5C 235.069,270.119 234.236,269.119 234,267.5C 233.722,268.416 233.222,269.082 232.5,269.5C 232.334,265.154 232.501,260.821 233,256.5C 234.167,255.333 235.333,254.167 236.5,253C 246.833,252.667 257.167,252.333 267.5,252C 254.655,250.685 241.655,250.019 228.5,250C 225.009,248.179 223.843,245.346 225,241.5C 225.383,240.944 225.883,240.611 226.5,240.5C 233.423,239.851 240.423,239.517 247.5,239.5C 254.535,239.503 261.202,240.17 267.5,241.5 Z M 229.5,242.5 C 242.212,241.854 254.545,242.52 266.5,244.5C 260.705,245.83 254.538,246.496 248,246.5C 241.833,246.333 235.667,246.167 229.5,246C 228.209,244.708 228.209,243.542 229.5,242.5 Z M 270.5,260.5 C 268.974,261.492 268.307,262.992 268.5,265C 268.559,266.436 268.892,267.769 269.5,269C 258.505,269.5 247.505,269.667 236.5,269.5C 234.876,265.731 235.209,261.731 237.5,257.5C 248.819,256.334 260.152,256.168 271.5,257C 273.958,258.733 273.625,259.9 270.5,260.5 Z"/>
  </g>
  <g transform="matrix(1, 0, 0, 1, -61.87624, 17.926376)">
    <path style="opacity: 0.137;" d="M 229.5,242.5 C 241.989,241.505 254.656,241.171 267.5,241.5C 267.833,241.5 268.167,241.5 268.5,241.5C 268.068,242.71 267.401,243.71 266.5,244.5C 254.545,242.52 242.212,241.854 229.5,242.5 Z"/>
  </g>
  <g transform="matrix(1, 0, 0, 1, -61.87624, 17.926376)">
    <path style="opacity: 0.027;" d="M 325.5,240.5 C 323.302,241.165 320.969,241.832 318.5,242.5C 320.969,243.168 323.302,243.835 325.5,244.5C 322.833,244.5 320.167,244.5 317.5,244.5C 317.5,243.167 317.5,241.833 317.5,240.5C 320.167,240.5 322.833,240.5 325.5,240.5 Z"/>
  </g>
  <g transform="matrix(1, 0, 0, 1, -61.87624, 17.926376)">
    <path style="opacity: 0.889;" d="M 341.5,247.5 C 341.5,247.833 341.5,248.167 341.5,248.5C 340.5,248.833 339.833,249.5 339.5,250.5C 338.432,252.74 336.766,254.574 334.5,256C 330.167,256.667 325.833,256.667 321.5,256C 320.619,255.292 319.953,254.458 319.5,253.5C 319.351,252.448 319.517,251.448 320,250.5C 321.079,252.394 322.413,252.727 324,251.5C 325.789,253.229 327.956,253.896 330.5,253.5C 330.795,251.265 330.461,249.265 329.5,247.5C 329.328,246.508 329.662,245.842 330.5,245.5C 334.03,246.011 337.196,245.344 340,243.5C 341.188,244.563 341.688,245.897 341.5,247.5 Z M 333.5,248.5 C 334.552,248.351 335.552,248.517 336.5,249C 335.333,249.5 334.5,250.333 334,251.5C 333.517,250.552 333.351,249.552 333.5,248.5 Z"/>
  </g>
  <g transform="matrix(1, 0, 0, 1, -61.87624, 17.926376)">
    <path style="opacity: 0.836;" d="M 364.5,168.5 C 365.167,194.5 365.833,220.5 366.5,246.5C 366.5,251.5 366.5,256.5 366.5,261.5C 360.242,261.19 354.076,261.524 348,262.5C 347.517,261.552 347.351,260.552 347.5,259.5C 351.042,259.813 354.375,259.479 357.5,258.5C 359.297,258.065 361.297,258.065 363.5,258.5C 364.435,228.515 364.768,198.515 364.5,168.5 Z"/>
  </g>
  <g transform="matrix(1, 0, 0, 1, -61.87624, 17.926376)">
    <path style="opacity: 0.996;" d="M 270.5,260.5 C 272.75,260.181 274.75,260.681 276.5,262C 275.675,263.688 274.675,263.855 273.5,262.5C 273.594,265.456 273.094,268.123 272,270.5C 274.018,269.777 275.852,268.777 277.5,267.5C 277.5,268.167 277.5,268.833 277.5,269.5C 277.611,270.117 277.944,270.617 278.5,271C 264.468,271.781 250.468,271.614 236.5,270.5C 236.5,270.167 236.5,269.833 236.5,269.5C 247.505,269.667 258.505,269.5 269.5,269C 268.892,267.769 268.559,266.436 268.5,265C 268.307,262.992 268.974,261.492 270.5,260.5 Z"/>
  </g>
  <g transform="matrix(1, 0, 0, 1, -61.87624, 17.926376)">
    <path style="opacity: 0.674;" d="M 285.5,255.5 C 286.791,255.263 287.791,255.596 288.5,256.5C 288.247,259.677 288.581,263.01 289.5,266.5C 293.982,267.326 298.649,267.826 303.5,268C 301.5,268.333 299.5,268.667 297.5,269C 312.83,269.5 328.163,269.667 343.5,269.5C 327.005,270.332 310.338,270.832 293.5,271C 295.685,275.187 296.019,279.52 294.5,284C 271.833,284.667 249.167,284.667 226.5,284C 225.183,279.825 225.349,275.658 227,271.5C 228.584,270.139 230.418,269.472 232.5,269.5C 233.222,269.082 233.722,268.416 234,267.5C 234.236,269.119 235.069,270.119 236.5,270.5C 250.468,271.614 264.468,271.781 278.5,271C 277.944,270.617 277.611,270.117 277.5,269.5C 280.187,269.664 282.854,269.497 285.5,269C 284.868,265.73 284.201,262.563 283.5,259.5C 278.435,259.528 277.769,258.528 281.5,256.5C 282.568,255.566 283.901,255.232 285.5,255.5 Z M 291.5,281.5 C 270.833,281.5 250.167,281.5 229.5,281.5C 229.5,279.833 229.5,278.167 229.5,276.5C 229.804,275.85 230.137,275.183 230.5,274.5C 250.489,273.5 270.489,273.167 290.5,273.5C 290.279,276.279 290.612,278.946 291.5,281.5 Z"/>
  </g>
  <g transform="matrix(1, 0, 0, 1, -61.87624, 17.926376)">
    <path style="opacity: 0.525;" d="M 229.5,276.5 C 229.5,278.167 229.5,279.833 229.5,281.5C 250.167,281.5 270.833,281.5 291.5,281.5C 270.673,282.497 249.673,282.831 228.5,282.5C 228.205,280.265 228.539,278.265 229.5,276.5 Z"/>
  </g>
  <g transform="matrix(1, 0, 0, 1, -61.87624, 17.926376)">
    <path style="opacity: 0.977;" d="M 198.5,305.5 C 197.918,308.313 196.918,310.98 195.5,313.5C 194.022,314.448 193.022,315.781 192.5,317.5C 192.807,311.907 192.473,306.407 191.5,301C 192,300.5 192.5,300 193,299.5C 200.413,300.481 207.913,300.814 215.5,300.5C 215.5,302.167 215.5,303.833 215.5,305.5C 209.623,305.617 203.956,305.617 198.5,305.5 Z"/>
  </g>
  <g transform="matrix(1, 0, 0, 1, -61.87624, 17.926376)">
    <path style="opacity: 0.945;" d="M 286.5,315.5 C 285.596,316.209 285.263,317.209 285.5,318.5C 290.833,318.5 296.167,318.5 301.5,318.5C 301.5,320.167 301.5,321.833 301.5,323.5C 296.167,323.5 290.833,323.5 285.5,323.5C 286.032,328.896 286.032,334.229 285.5,339.5C 283.5,339.5 281.5,339.5 279.5,339.5C 279.186,326.783 279.519,314.117 280.5,301.5C 287.803,300.503 295.137,300.169 302.5,300.5C 302.5,302.167 302.5,303.833 302.5,305.5C 297.125,305.172 291.792,305.505 286.5,306.5C 285.175,309.531 285.175,312.531 286.5,315.5 Z"/>
  </g>
  <g transform="matrix(1, 0, 0, 1, -61.87624, 17.926376)">
    <path style="opacity: 0.977;" d="M 218.5,309.5 C 220.527,309.338 222.527,309.505 224.5,310C 227,313.167 229.5,316.333 232,319.5C 233.776,316.059 235.943,312.892 238.5,310C 240.579,309.192 242.579,309.359 244.5,310.5C 241.696,315.136 238.696,319.636 235.5,324C 238.889,328.615 241.889,333.448 244.5,338.5C 242.579,339.641 240.579,339.808 238.5,339C 235.963,336.094 233.796,332.927 232,329.5C 229.38,332.576 226.88,335.742 224.5,339C 221.621,339.874 218.955,339.54 216.5,338C 217.448,337.517 218.448,337.351 219.5,337.5C 222.023,332.961 224.689,328.461 227.5,324C 223.852,319.53 220.852,314.696 218.5,309.5 Z"/>
  </g>
  <g transform="matrix(1, 0, 0, 1, -61.87624, 17.926376)">
    <path style="opacity: 0.989;" d="M 397.5,311.5 C 394.446,310.679 391.446,310.679 388.5,311.5C 390.363,312.689 392.03,314.022 393.5,315.5C 389.185,313.685 385.685,314.685 383,318.5C 382.5,325.492 382.334,332.492 382.5,339.5C 380.5,339.5 378.5,339.5 376.5,339.5C 376.901,331.415 376.401,323.415 375,315.5C 369.934,313.266 366.434,314.599 364.5,319.5C 365.053,316.349 364.386,313.349 362.5,310.5C 364.034,311.203 365.701,311.036 367.5,310C 371.594,309.233 375.594,309.566 379.5,311C 380.5,314.333 381.5,314.333 382.5,311C 387.738,308.856 392.738,309.023 397.5,311.5 Z"/>
  </g>
  <g transform="matrix(1, 0, 0, 1, -61.87624, 17.926376)">
    <path style="opacity: 0.975;" d="M 322.5,337.5 C 319.797,337.955 317.13,338.622 314.5,339.5C 311.787,339.08 309.454,337.913 307.5,336C 306.483,332.227 306.483,328.394 307.5,324.5C 312.315,321.46 317.648,319.96 323.5,320C 322.74,318.559 322.074,317.059 321.5,315.5C 317.528,314.142 313.695,314.475 310,316.5C 307.644,315.107 307.144,313.274 308.5,311C 314.525,309.128 320.525,309.128 326.5,311C 327.126,311.75 327.626,312.584 328,313.5C 329.231,322.222 329.398,330.889 328.5,339.5C 326.282,339.386 324.282,338.72 322.5,337.5 Z M 316.5,325.5 C 318.833,325.5 321.167,325.5 323.5,325.5C 323.232,333.312 319.232,336.312 311.5,334.5C 311.338,332.473 311.505,330.473 312,328.5C 313.652,327.601 315.152,326.601 316.5,325.5 Z"/>
  </g>
  <g transform="matrix(1, 0, 0, 1, -61.87624, 17.926376)">
    <path style="opacity: 0.997;" d="M 362.5,310.5 C 364.386,313.349 365.053,316.349 364.5,319.5C 364.5,326.167 364.5,332.833 364.5,339.5C 362.5,339.5 360.5,339.5 358.5,339.5C 358.5,329.5 358.5,319.5 358.5,309.5C 360.099,309.232 361.432,309.566 362.5,310.5 Z"/>
  </g>
  <g transform="matrix(1, 0, 0, 1, -61.87624, 17.926376)">
    <path style="opacity: 0.996;" d="M 397.5,311.5 C 398.966,312.347 399.8,313.68 400,315.5C 400.5,323.493 400.666,331.493 400.5,339.5C 398.5,339.5 396.5,339.5 394.5,339.5C 394.77,331.445 394.437,323.445 393.5,315.5C 392.03,314.022 390.363,312.689 388.5,311.5C 391.446,310.679 394.446,310.679 397.5,311.5 Z"/>
  </g>
  <g transform="matrix(1, 0, 0, 1, -61.87624, 17.926376)">
    <path style="opacity: 0.962;" d="M 263.5,338.5 C 260.756,339.205 258.089,339.205 255.5,338.5C 257.539,338.253 259.872,337.753 262.5,337C 261.167,336.667 259.833,336.333 258.5,336C 259.737,335.768 260.737,335.268 261.5,334.5C 265.008,332.575 266.341,329.575 265.5,325.5C 263.032,324.432 260.699,323.098 258.5,321.5C 260.607,320.532 262.941,320.198 265.5,320.5C 265.822,318.278 265.155,316.444 263.5,315C 259.628,314.109 255.962,314.609 252.5,316.5C 250.561,314.878 250.228,313.044 251.5,311C 257.591,308.844 263.591,309.011 269.5,311.5C 270,312.5 270.5,313.5 271,314.5C 271.5,322.827 271.666,331.16 271.5,339.5C 269.234,339.859 267.401,339.192 266,337.5C 265.329,338.252 264.496,338.586 263.5,338.5 Z"/>
  </g>
  <g transform="matrix(1, 0, 0, 1, -61.87624, 17.926376)">
    <path style="opacity: 0.983;" d="M 198.5,305.5 C 198.5,308.833 198.5,312.167 198.5,315.5C 203.787,316.342 209.12,316.676 214.5,316.5C 214.5,318.167 214.5,319.833 214.5,321.5C 209.319,321.931 203.986,321.931 198.5,321.5C 198.5,325.833 198.5,330.167 198.5,334.5C 204.167,334.5 209.833,334.5 215.5,334.5C 215.5,336.167 215.5,337.833 215.5,339.5C 207.648,339.825 199.982,339.492 192.5,338.5C 199.833,338.5 207.167,338.5 214.5,338.5C 214.5,337.5 214.5,336.5 214.5,335.5C 208.833,335.5 203.167,335.5 197.5,335.5C 197.334,330.156 197.501,324.823 198,319.5C 198.374,318.584 198.874,317.75 199.5,317C 197.676,316.34 196.343,315.173 195.5,313.5C 196.918,310.98 197.918,308.313 198.5,305.5 Z"/>
  </g>
  <g transform="matrix(1, 0, 0, 1, -61.87624, 17.926376)">
    <path style="opacity: 0.055;" d="M 286.5,315.5 C 291.251,317.141 296.251,318.141 301.5,318.5C 296.167,318.5 290.833,318.5 285.5,318.5C 285.263,317.209 285.596,316.209 286.5,315.5 Z"/>
  </g>
  <g transform="matrix(1, 0, 0, 1, -61.87624, 17.926376)">
    <path style="opacity: 0.994;" d="M 341.5,310.5 C 341.345,313.853 342.012,314.186 343.5,311.5C 346.92,309.778 350.586,309.111 354.5,309.5C 354.5,311.167 354.5,312.833 354.5,314.5C 349.411,313.428 345.578,315.095 343,319.5C 342.5,326.158 342.334,332.825 342.5,339.5C 340.5,339.5 338.5,339.5 336.5,339.5C 336.5,329.5 336.5,319.5 336.5,309.5C 338.415,309.216 340.081,309.549 341.5,310.5 Z"/>
  </g>
  <g transform="matrix(1, 0, 0, 1, -61.87624, 17.926376)">
    <path style="opacity: 0.016;" d="M 341.5,310.5 C 342.167,310.833 342.833,311.167 343.5,311.5C 342.012,314.186 341.345,313.853 341.5,310.5 Z"/>
  </g>
  <g transform="matrix(1, 0, 0, 1, -61.87624, 17.926376)">
    <path style="opacity: 0.969;" d="M 258.5,321.5 C 260.699,323.098 263.032,324.432 265.5,325.5C 261.424,325.121 257.757,326.121 254.5,328.5C 253.24,330.353 253.24,332.186 254.5,334C 256.81,334.497 259.143,334.663 261.5,334.5C 260.737,335.268 259.737,335.768 258.5,336C 259.833,336.333 261.167,336.667 262.5,337C 259.872,337.753 257.539,338.253 255.5,338.5C 258.089,339.205 260.756,339.205 263.5,338.5C 256.502,342.002 251.002,340.336 247,333.5C 246.849,325.815 250.683,321.815 258.5,321.5 Z"/>
  </g>
  <g transform="matrix(1, 0, 0, 1, -61.87624, 17.926376)">
    <path style="opacity: 0.837;" d="M 307.5,324.5 C 306.483,328.394 306.483,332.227 307.5,336C 309.454,337.913 311.787,339.08 314.5,339.5C 317.13,338.622 319.797,337.955 322.5,337.5C 316.159,341.918 310.325,341.252 305,335.5C 304.333,332.833 304.333,330.167 305,327.5C 305.377,326.058 306.21,325.058 307.5,324.5 Z"/>
  </g>
  <g transform="matrix(1, 0, 0, 1, -61.87624, 17.926376)">
    <path style="opacity: 0.995;" d="M 195.5,313.5 C 196.343,315.173 197.676,316.34 199.5,317C 198.874,317.75 198.374,318.584 198,319.5C 197.501,324.823 197.334,330.156 197.5,335.5C 203.167,335.5 208.833,335.5 214.5,335.5C 214.5,336.5 214.5,337.5 214.5,338.5C 207.167,338.5 199.833,338.5 192.5,338.5C 192.5,331.5 192.5,324.5 192.5,317.5C 193.022,315.781 194.022,314.448 195.5,313.5 Z"/>
  </g>
</svg>